# xmcd CD database file
#
# Track frame offsets:
#	150
#	15112
#	29772
#	41327
#	54150
#	68250
#	82760
#	97867
#	116602
#	129980
#	142960
#	153470
#	165177
#	178430
#	191700
#	205580
#	218790
#	232810
#	245197
#	260175
#	273892
#	288097
#	302017
#	316212
#	328895
#
# Disc length: 4675 seconds
#
# Revision: 1
# Processed by: cddbd v1.5.2PL0 Copyright (c) Steve Scherf et al.
# Submitted via: CDex 1.70beta2
#
DISCID=4a124119
DTITLE=Various Artist - Les 100 Plus Belles Melodies Jazzy
DYEAR=2000
DGENRE=Jazz
TTITLE0=Glenn Miller - Moonlight Serenade
TTITLE1=Artie Shaw - Begin the Beguine
TTITLE2=Ella Fitzgerald - It's only a paper moon
TTITLE3=Don Byas - September Song
TTITLE4=Harry James - I'm Beginning to See the Light
TTITLE5=Xavier Cugat - Tico Tico
TTITLE6=Nat King Cole - Embraceable You
TTITLE7=Sidney Bechet - Summertime
TTITLE8=June Christy - You're Blase
TTITLE9=Casa Loma Orchestra - Smoke Rings
TTITLE10=Dinah Shore - I'll Walk Alone
TTITLE11=Jimmy Lunceford - Blues in the Night
TTITLE12=Frank Sinatra - Whispering
TTITLE13=Johnny Hodges - The Mood to be Wooed
TTITLE14=Sarah Vaughan - Tenderly
TTITLE15=Erroll Garner - Pastel
TTITLE16=Billie Holiday - As Time Goes By
TTITLE17=Duke Ellington - Mood Indigo
TTITLE18=Peggy Lee - I'm Confessin'
TTITLE19=Coleman Hawkins - Body and Soul
TTITLE20=Mel Torme - On the Achison, Topeka and Santa Fe
TTITLE21=Charlie Parker - April In Paris
TTITLE22=Jimmy Dorsey - Tangerine
TTITLE23=Count Basie - Sugar
TTITLE24=Bunny Berigan - I Can't Get Started
EXTD=YEAR: 2000
EXTT0=
EXTT1=
EXTT2=
EXTT3=
EXTT4=
EXTT5=
EXTT6=
EXTT7=
EXTT8=
EXTT9=
EXTT10=
EXTT11=
EXTT12=
EXTT13=
EXTT14=
EXTT15=
EXTT16=
EXTT17=
EXTT18=
EXTT19=
EXTT20=
EXTT21=
EXTT22=
EXTT23=
EXTT24=
PLAYORDER=
